<?xml version="1.0" standalone="no"?>
<!DOCTYPE svg PUBLIC "-//W3C//DTD SVG 20010904//EN"
 "http://www.w3.org/TR/2001/REC-SVG-20010904/DTD/svg10.dtd">
<svg version="1.0" xmlns="http://www.w3.org/2000/svg"
 width="900.000000pt" height="900.000000pt" viewBox="0 0 900.000000 900.000000"
 preserveAspectRatio="xMidYMid meet">
<metadata>
Created by potrace 1.11, written by Peter Selinger 2001-2013
</metadata>
<g transform="translate(0.000000,900.000000) scale(0.100000,-0.100000)"
fill="#000000" stroke="none">
<path d="M0 4500 l0 -4500 4500 0 4500 0 0 4500 0 4500 -4500 0 -4500 0 0
-4500z m4594 2901 c21 -13 189 -203 393 -444 l356 -422 46 3 c25 2 255 21 510
43 550 46 572 47 631 17 65 -34 84 -66 88 -149 3 -38 -15 -303 -39 -589 -23
-286 -41 -521 -38 -523 2 -2 192 -162 422 -356 296 -251 424 -365 442 -395 46
-78 27 -163 -52 -237 -21 -20 -212 -183 -425 -363 -345 -290 -388 -330 -388
-355 0 -16 18 -244 41 -507 22 -264 39 -516 37 -561 -3 -88 -16 -116 -72 -157
-44 -33 -146 -31 -670 13 -263 23 -491 41 -507 41 -25 0 -66 -45 -355 -387
-180 -214 -343 -405 -363 -426 -73 -78 -157 -97 -234 -54 -29 16 -142 142
-395 442 -195 231 -357 422 -359 424 -2 3 -237 -15 -523 -38 -286 -24 -551
-42 -589 -39 -83 4 -115 23 -148 88 -31 59 -30 75 17 638 22 262 41 493 42
513 3 36 2 37 -419 393 -246 208 -431 372 -445 394 -33 53 -32 135 2 185 14
21 215 198 446 394 l422 356 -4 36 c-14 116 -84 995 -84 1046 0 126 69 195
195 195 34 0 275 -18 536 -40 261 -22 491 -41 511 -42 l37 -3 346 410 c339
401 374 440 432 471 38 20 111 13 157 -15z"/>
<path d="M4329 6497 c-95 -116 -175 -216 -179 -220 -4 -4 -111 48 -238 117
-127 69 -236 127 -243 128 -7 2 -40 -95 -88 -257 -75 -251 -78 -260 -102 -258
-13 2 -138 14 -277 29 -140 14 -256 23 -259 21 -2 -3 7 -119 21 -259 15 -139
27 -264 29 -277 2 -23 -9 -27 -258 -102 -169 -50 -259 -81 -257 -89 2 -7 59
-116 128 -242 69 -127 122 -234 117 -238 -4 -4 -104 -84 -220 -179 l-213 -172
218 -176 c119 -97 219 -178 220 -179 2 -1 -53 -107 -123 -235 -69 -128 -127
-237 -128 -243 -2 -8 151 -57 468 -151 l51 -14 -29 -277 c-15 -152 -26 -279
-23 -282 3 -3 130 8 281 23 151 16 277 26 278 24 2 -2 37 -116 77 -254 40
-137 75 -253 77 -257 5 -9 40 8 292 146 l193 105 19 -22 c9 -12 89 -111 176
-219 87 -108 160 -197 163 -197 3 0 85 98 182 219 l178 219 147 -81 c82 -44
190 -102 240 -130 l93 -50 9 24 c5 13 39 127 76 254 37 126 71 233 76 238 4 5
125 -4 278 -19 149 -16 274 -25 278 -22 3 4 -6 129 -22 278 -15 153 -24 274
-19 278 5 5 122 41 259 81 138 41 252 75 254 76 3 3 -23 52 -177 337 l-81 147
219 178 c121 97 219 179 219 182 0 3 -89 76 -197 163 -108 87 -207 167 -219
176 l-22 18 130 239 c71 131 126 241 122 245 -5 3 -120 39 -258 79 -137 41
-252 75 -254 77 -2 1 9 127 24 278 16 151 26 278 23 281 -3 3 -129 -8 -279
-23 -187 -20 -276 -26 -280 -18 -4 5 -39 120 -79 255 -39 135 -75 248 -78 252
-4 3 -114 -52 -245 -124 -131 -71 -240 -128 -241 -126 -1 1 -82 101 -179 220
l-176 218 -172 -213z m241 -752 c16 -8 40 -30 53 -47 29 -38 879 -2137 871
-2150 -3 -4 -72 -8 -154 -8 -139 0 -150 1 -163 20 -8 12 -59 129 -112 260
l-98 240 -467 0 -466 0 -98 -242 c-54 -134 -105 -251 -114 -260 -13 -16 -35
-18 -165 -18 l-149 0 4 28 c6 33 821 2051 851 2107 42 77 134 108 207 70z"/>
<path d="M4490 5190 c0 -5 -74 -190 -165 -409 -91 -220 -165 -402 -165 -405 0
-9 680 -7 680 2 1 16 -335 822 -342 822 -5 0 -8 -4 -8 -10z"/>
</g>
</svg>
